<svg width="15" height="12" viewBox="0 0 15 12" fill="none">
<path d="M0 5.50921C0.604703 4.42322 1.42785 3.47446 2.41748 2.72235C3.40711 1.97023 4.54175 1.43119 5.75 1.13934C7.39273 0.748745 9.11831 0.910378 10.6599 1.5993C10.6961 1.63029 10.7424 1.6474 10.79 1.6474C10.8377 1.6474 10.8837 1.63029 10.9199 1.5993C11.3799 1.1293 11.8501 0.669407 12.3101 0.209407C12.3676 0.141857 12.4441 0.0932038 12.5298 0.0700032C12.6154 0.0468025 12.7063 0.0500123 12.79 0.0792805C12.8705 0.0991131 12.9435 0.141768 13.0002 0.202083C13.057 0.262399 13.0952 0.337896 13.1101 0.419368C13.1265 0.50638 13.1203 0.59611 13.0923 0.680111C13.0643 0.764111 13.0153 0.839581 12.95 0.899349L11.05 2.78924L2.73999 11.0993C2.68424 11.1688 2.61204 11.2236 2.53003 11.2585C2.44802 11.2934 2.35878 11.3073 2.27002 11.2993C2.18406 11.2873 2.10349 11.2508 2.03784 11.194C1.97219 11.1372 1.92415 11.0628 1.8999 10.9794C1.87126 10.8948 1.86742 10.8038 1.88867 10.717C1.90993 10.6302 1.95551 10.5513 2.02002 10.4894L3.18994 9.31927L3.34009 9.20941C1.9653 8.36216 0.81855 7.19132 0 5.79925V5.50921ZM10.0701 2.37933H10.01C8.47573 1.7734 6.77363 1.74489 5.21997 2.29925C3.52197 2.91639 2.06726 4.06273 1.07007 5.56927C1.01007 5.65927 1.07007 5.69922 1.07007 5.76922C1.64489 6.58887 2.34692 7.31147 3.1499 7.90936C3.4199 8.10936 3.70998 8.28942 3.97998 8.46942L5.17993 7.26922C4.80785 6.74201 4.62783 6.10332 4.66992 5.45941C4.71321 4.80473 4.99001 4.18732 5.44995 3.71942C5.86048 3.27879 6.40569 2.98678 7 2.88934C7.36374 2.82531 7.73651 2.83382 8.09692 2.91449C8.45734 2.99515 8.79836 3.14634 9.1001 3.35931L10.0701 2.37933ZM5.88989 6.54925L8.41992 4.01922C8.07367 3.80949 7.66745 3.7214 7.26538 3.76849C6.86331 3.81558 6.48837 3.99517 6.19995 4.27923C5.89763 4.56582 5.70212 4.94706 5.64575 5.3598C5.58939 5.77254 5.67548 6.1921 5.88989 6.54925Z" fill="#898989"/>
<path d="M15 5.75024C14.4117 6.79695 13.622 7.71654 12.6763 8.4563C11.7305 9.19606 10.6476 9.74116 9.48999 10.0601C8.0916 10.4373 6.61522 10.4132 5.22998 9.99023H5.15991L5.88989 9.27002C5.93188 9.25473 5.97803 9.25473 6.02002 9.27002C7.10779 9.5131 8.23777 9.49296 9.31616 9.21118C10.3946 8.92941 11.3902 8.39428 12.22 7.65015C12.8646 7.1092 13.433 6.48342 13.9099 5.79004C13.9246 5.77784 13.9365 5.76264 13.9446 5.74536C13.9527 5.72808 13.957 5.70928 13.957 5.69019C13.957 5.67109 13.9527 5.65229 13.9446 5.63501C13.9365 5.61773 13.9246 5.60229 13.9099 5.59009C13.3535 4.80151 12.6789 4.10325 11.9099 3.52002L11.78 3.42017L12.46 2.74023C13.4743 3.51767 14.3269 4.48566 14.97 5.59009L15 5.75024Z" fill="#898989"/>
<path d="M6.76001 8.35083L7.6001 7.52075C7.64539 7.50474 7.6947 7.50474 7.73999 7.52075C8.14815 7.46703 8.52726 7.28036 8.81836 6.98926C9.10946 6.69816 9.29638 6.31904 9.3501 5.91089C9.33408 5.8656 9.33408 5.81604 9.3501 5.77075L10.1599 4.96094C10.2895 5.40402 10.3032 5.87282 10.2 6.32275C10.0967 6.77269 9.87991 7.18855 9.57007 7.53076C9.22158 7.91152 8.77527 8.18939 8.27979 8.33398C7.7843 8.47857 7.25858 8.4844 6.76001 8.35083Z" fill="#898989"/>
</svg>
