<svg width="15" height="10" viewBox="0 0 15 10" fill="none" xmlns="http://www.w3.org/2000/svg">
<path d="M0 4.58C0.598207 3.49382 1.41699 2.54498 2.40381 1.79411C3.39063 1.04323 4.52363 0.507064 5.72998 0.220133C6.89335 -0.0616625 8.10575 -0.0731052 9.27417 0.186929C10.4426 0.446964 11.5359 0.971553 12.47 1.72013C13.4215 2.4345 14.2321 3.3194 14.8601 4.33L15 4.58V4.80998C14.4223 5.85917 13.6394 6.78145 12.698 7.52189C11.7566 8.26233 10.6758 8.80584 9.52002 9.12004C8.40985 9.42239 7.24665 9.47695 6.11304 9.27995C4.97942 9.08295 3.90304 8.63931 2.95996 7.98014C1.81949 7.21847 0.857385 6.21873 0.139893 5.04997C0.139893 4.97997 0.05 4.88998 0 4.80998V4.58ZM7.6499 0.950113C6.82067 0.934103 5.99505 1.06257 5.20996 1.33C3.52069 1.95839 2.07467 3.10692 1.08008 4.61002C1.06706 4.62219 1.05666 4.6369 1.04956 4.65324C1.04246 4.66958 1.03882 4.68718 1.03882 4.705C1.03882 4.72281 1.04246 4.74041 1.04956 4.75675C1.05666 4.7731 1.06706 4.7878 1.08008 4.79997C1.64891 5.63027 2.35166 6.36038 3.15991 6.96012C4.06541 7.67885 5.13679 8.15894 6.27588 8.35636C7.41497 8.55378 8.58538 8.4621 9.67993 8.09001C11.4252 7.48944 12.9183 6.32048 13.9199 4.77018C13.9799 4.70018 13.9199 4.65002 13.9199 4.60002C13.4719 3.94422 12.941 3.34925 12.3401 2.83C11.0547 1.65812 9.38883 0.990538 7.6499 0.950113V0.950113Z" fill="#898989"/>
<path d="M7.50002 1.89064C7.86856 1.89064 8.23338 1.96342 8.57375 2.10475C8.91411 2.24609 9.22328 2.45331 9.48342 2.71437C9.74355 2.97544 9.94974 3.28513 10.0899 3.62599C10.23 3.96686 10.3014 4.33216 10.3001 4.7007C10.2974 5.44688 9.99904 6.16156 9.47048 6.68825C8.94191 7.21494 8.22618 7.51076 7.48 7.51076C7.11098 7.50945 6.74596 7.43541 6.40554 7.29299C6.06511 7.15056 5.75587 6.94254 5.49587 6.68068C5.23586 6.41882 5.03016 6.10829 4.89015 5.76686C4.75015 5.42544 4.67863 5.05971 4.67995 4.69069C4.68126 4.32168 4.75529 3.95641 4.89772 3.61598C5.04015 3.27556 5.24817 2.96657 5.51003 2.70656C5.77189 2.44656 6.08242 2.24085 6.42385 2.10085C6.76527 1.96085 7.131 1.88933 7.50002 1.89064V1.89064ZM9.36013 4.7007C9.36144 4.45513 9.31421 4.21178 9.22145 3.98439C9.12869 3.75701 8.99207 3.55008 8.81935 3.37551C8.64664 3.20093 8.44124 3.062 8.21486 2.96681C7.98848 2.87163 7.74559 2.82188 7.50002 2.82057C7.00486 2.82055 6.52975 3.01602 6.17775 3.36428C5.82575 3.71253 5.6254 4.18555 5.62014 4.68068C5.61749 4.92793 5.66382 5.17317 5.75661 5.40236C5.8494 5.63155 5.98675 5.84012 6.16066 6.01589C6.33457 6.19166 6.5416 6.33131 6.76979 6.42653C6.99799 6.52176 7.24274 6.57059 7.49001 6.57057C7.73982 6.57197 7.98735 6.52338 8.21804 6.42751C8.44873 6.33164 8.65803 6.19051 8.83327 6.01247C9.00851 5.83443 9.14609 5.62307 9.2383 5.39089C9.33051 5.15871 9.37548 4.91042 9.37013 4.66066L9.36013 4.7007Z" fill="#898989"/>
</svg>
